<svg preserveAspectRatio="xMidYMid meet" data-bbox="178.2 103 1243.7 1389.1" height="1600" width="1600" viewBox="0 0 1600 1600" xmlns="http://www.w3.org/2000/svg" data-type="ugc" role="presentation" aria-hidden="true" aria-label="">
    <g>
        <path d="m550.5 250.1 43.4-43.4h31.7V106.2h82.7v466.7c0 50.1 40.6 90.7 90.7 90.7s90.7-40.6 90.7-90.7V106.2h82.8v100.5h31.6l43.5 43.4v106.4h-75.1v292.9h-67.8c-27.2 0-42.4 70.2-105.7 70.2-63.3 0-78.5-70.2-105.7-70.2h-67.8V356.5h-75.1V250.1zm463.9 34.1c0-14.6-11.7-26.3-26.3-26.3-14.6 0-26.3 11.7-26.3 26.3 0 14.5 11.7 26.3 26.3 26.3 14.6 0 26.3-11.8 26.3-26.3zm-378.1 0c0-14.6-11.7-26.3-26.3-26.3-14.6 0-26.3 11.7-26.3 26.3 0 14.5 11.7 26.3 26.3 26.3 14.6 0 26.3-11.8 26.3-26.3z" fill-rule="evenodd" fill="#000000"></path>
        <path d="M799 722.9c-39.8 0-60.9-26.2-77.8-47.2-10-12.4-18.7-23.1-27.9-23.1h-67.8c-1.8 0-3.2-1.4-3.2-3.2V359.8h-71.9c-1.8 0-3.2-1.5-3.2-3.3V250.1c0-.8.3-1.6.9-2.3l43.5-43.4c.6-.6 1.4-1 2.3-1h28.4v-97.2c0-1.7 1.4-3.2 3.2-3.2h82.8c1.8 0 3.2 1.5 3.2 3.2v466.7c0 48.2 39.3 87.5 87.5 87.5s87.5-39.3 87.5-87.5V106.2c0-1.7 1.4-3.2 3.2-3.2h82.7c1.8 0 3.3 1.5 3.3 3.2v97.2h28.4c.9 0 1.7.4 2.3 1l43.4 43.4c.7.6 1 1.5 1 2.3v106.4c0 1.8-1.5 3.3-3.2 3.3h-71.9v289.5c0 1.8-1.5 3.3-3.3 3.3h-67.7c-9.2 0-17.9 10.7-27.9 23.1-16.9 21-38 47.1-77.8 47.1zm-170.2-76.7h64.5c12.3 0 21.9 11.9 32.9 25.5 16.1 20 36.1 44.8 72.8 44.8 36.7 0 56.7-24.8 72.8-44.8 11-13.6 20.6-25.5 32.9-25.5h64.5V356.6c0-1.8 1.5-3.2 3.3-3.2h71.8V251.6l-41.5-41.6h-30.4c-1.7 0-3.2-1.5-3.2-3.2v-97.2h-76.3V573c0 51.8-42.1 93.9-93.9 93.9-51.8 0-94-42.1-94-93.9V109.6h-76.2v97.1c0 1.8-1.5 3.3-3.3 3.3h-30.3l-41.5 41.5v101.9h71.8c1.8 0 3.3 1.4 3.3 3.2v289.6zM988 313.8c-16.3 0-29.5-13.2-29.5-29.5 0-16.4 13.2-29.6 29.5-29.6 16.4 0 29.6 13.2 29.6 29.6 0 16.3-13.2 29.5-29.6 29.5zm23.1-29.5c0-12.8-10.3-23.1-23.1-23.1-12.7 0-23.1 10.3-23.1 23.1 0 12.7 10.4 23 23.1 23 12.8 0 23.1-10.3 23.1-23zm-401.2 29.5c-16.3 0-29.6-13.2-29.6-29.5 0-16.4 13.3-29.6 29.6-29.6 16.4 0 29.6 13.2 29.6 29.6 0 16.3-13.2 29.5-29.6 29.5zm23.1-29.5c0-12.8-10.3-23.1-23.1-23.1-12.7 0-23.1 10.3-23.1 23.1 0 12.7 10.4 23 23.1 23 12.8 0 23.1-10.3 23.1-23z" fill-rule="evenodd" fill="#000000"></path>
        <path d="M777 749.1v283.2h44V749.1c-7.1 2-14.5 3.1-22 3.1s-14.9-1.1-22-3.1z" fill="#000000"></path>
        <path d="M783.5 1035.6q-3.3 0-6.5-.1c-1.8 0-3.2-1.5-3.2-3.2V749.1c0-1 .5-2 1.3-2.6.8-.6 1.8-.8 2.8-.5 14.1 4 28 4 42.2 0 1-.3 2-.1 2.8.5.8.6 1.3 1.6 1.3 2.6v283.2c0 1.7-1.4 3.2-3.2 3.2q-3.2.1-6.6.1zm-3.2-6.5h37.4V753.2c-12.5 3-24.9 3-37.4 0z" fill-rule="evenodd" fill="#000000"></path>
        <path d="M450.5 206.3c-8.8-5.6-14.7-15.5-14.7-26.8 0-17.6 14.2-31.9 31.8-31.9s31.8 14.3 31.8 31.9c0 13.3-8.2 24.7-19.8 29.5v101.5h40v-75.7l54.6-53.4h19.7v-75.2H371.7v357.7h78.8z" fill="#000000"></path>
        <path d="M450.5 467.1h-78.8c-1.8 0-3.2-1.4-3.2-3.2V106.2c0-1.7 1.4-3.2 3.2-3.2h222.2c1.8 0 3.2 1.5 3.2 3.2v75.2c0 1.8-1.4 3.3-3.2 3.3h-18.4l-52.7 51.4v74.4c0 1.8-1.5 3.2-3.2 3.2h-40c-1.8 0-3.3-1.4-3.3-3.2V209c0-1.4.8-2.5 2.1-3 10.8-4.4 17.8-14.8 17.8-26.5 0-15.8-12.8-28.7-28.6-28.7-15.7 0-28.6 12.9-28.6 28.7 0 9.8 5 18.8 13.3 24.1.9.6 1.5 1.6 1.5 2.7v257.6c0 1.8-1.5 3.2-3.3 3.2zm-75.5-6.4h72.3V208c-9.3-6.5-14.8-17.1-14.8-28.5 0-19.4 15.8-35.1 35.1-35.1 19.4 0 35.1 15.7 35.1 35.1 0 13.6-7.7 25.8-19.9 31.6v96.2h33.5v-72.5c0-.9.4-1.7 1-2.3l54.6-53.4c.6-.6 1.4-.9 2.3-.9h16.4v-68.7H375v351.1z" fill-rule="evenodd" fill="#000000"></path>
        <path d="M450.7 640.2h-78.5c8.3 177.1 128.4 324.8 291.4 374.4V940L450.7 727.1z" fill="#000000"></path>
        <path d="M663.6 1017.8q-.5 0-1-.1C495.2 966.8 377.2 815.2 369 640.4c-.1-.9.2-1.8.9-2.4.6-.6 1.4-1 2.3-1h78.5c1.8 0 3.2 1.5 3.2 3.2v85.6l212 211.9c.6.6.9 1.4.9 2.3v74.6c0 1-.5 2-1.3 2.6-.6.4-1.2.6-1.9.6zm-288-374.3c9.4 169.1 123.2 315.7 284.7 366.7v-68.8l-211.9-212c-.6-.6-1-1.4-1-2.3v-83.6h-71.8z" fill-rule="evenodd" fill="#000000"></path>
        <path d="M687.4 676.3zm0 0c.6 1 25.5 38.3 61.4 60.2v95.9H624.2c-6.3 0-12.4 1.6-17.9 4.7l-1.1.6L481 713.5V610.1H371.7v-117h107.8v-49.5h40v251.7l71.8 71.8h20.4c.9 16.7 14.2 30 31.8 30 17.5 0 31.8-14.3 31.8-31.8 0-17.6-14.3-31.9-31.8-31.9-12.3 0-22.9 7-28.2 17.1l-64.9-64.8V414.8h-70.8v-72h39.9v42.1h74.4v291.4zm-198.7-123c0-14.5-11.8-26.3-26.3-26.3-14.6 0-26.4 11.8-26.4 26.3 0 14.6 11.8 26.4 26.4 26.4 14.5 0 26.3-11.8 26.3-26.4z" fill-rule="evenodd" fill="#000000"></path>
        <path d="M605.3 841c-.8 0-1.7-.3-2.3-.9L478.7 715.8c-.6-.6-.9-1.4-.9-2.3V613.3H371.7c-1.8 0-3.2-1.4-3.2-3.2V493.2c0-1.8 1.4-3.3 3.2-3.3h104.7v-46.2c0-1.8 1.4-3.3 3.2-3.3h40c1.8 0 3.2 1.5 3.2 3.3V694l69.9 69.9h19.1c1.7 0 3.1 1.3 3.2 3 .8 15.2 13.3 27 28.5 27s28.6-12.8 28.6-28.6-12.8-28.6-28.6-28.6c-10.7 0-20.4 5.9-25.3 15.4-.5.9-1.4 1.5-2.4 1.7-1 .2-2.1-.2-2.8-.9l-64.8-64.8c-.6-.7-1-1.5-1-2.3V418.1h-67.6c-1.8 0-3.2-1.4-3.2-3.2v-72c0-1.8 1.4-3.3 3.2-3.3h40c1.8 0 3.2 1.5 3.2 3.3v38.8h71.1c1.8 0 3.2 1.5 3.2 3.2v288.2h90.4c1.1 0 2.1.5 2.7 1.4.2.4 25 37.7 60.4 59.3 1 .6 1.6 1.7 1.6 2.8v95.9c0 1.8-1.5 3.2-3.3 3.2H624.3c-5.7 0-11.3 1.5-16.3 4.3l-1.1.6q-.7.5-1.6.5zm-121-128.9 121.6 121.6c5.7-3 12-4.5 18.4-4.5h121.4v-90.9c-32.2-20.2-55-51.6-59.9-58.8h-91.9c-1.8 0-3.2-1.5-3.2-3.3V388.1h-71.1c-1.8 0-3.3-1.4-3.3-3.2V346h-33.4v65.5h67.6c1.8 0 3.2 1.5 3.2 3.3v269.5l61 61c6.5-9.4 17.2-15.2 28.8-15.2 19.4 0 35.1 15.8 35.1 35.1 0 19.4-15.7 35.1-35.1 35.1-17.5 0-32.2-13-34.7-30h-17.5c-.8 0-1.6-.4-2.3-1l-71.7-71.7c-.6-.7-1-1.5-1-2.3V446.8h-33.4v46.3c0 1.8-1.5 3.2-3.3 3.2H375v110.5h106.1c1.7 0 3.2 1.4 3.2 3.2v102.1zm-21.8-129.3c-16.4 0-29.6-13.2-29.6-29.5 0-16.4 13.2-29.6 29.6-29.6 16.3 0 29.5 13.2 29.5 29.6 0 16.3-13.2 29.5-29.5 29.5zm23.1-29.5c0-12.8-10.4-23.1-23.1-23.1-12.8 0-23.1 10.3-23.1 23.1 0 12.7 10.3 23.1 23.1 23.1 12.7 0 23.1-10.4 23.1-23.1z" fill-rule="evenodd" fill="#000000"></path>
        <path d="M692.1 924.6v97.5c18.5 4.2 37.5 7.2 56.8 8.8V860.1H627.6l64.5 64.5z" fill="#000000"></path>
        <path d="M748.9 1034.1zm-.2 0c-19.3-1.6-38.6-4.6-57.3-8.8-1.5-.4-2.5-1.7-2.5-3.2v-96.2l-63.6-63.5c-.9-1-1.2-2.4-.7-3.6.5-1.2 1.7-2 3-2h121.3c1.8 0 3.3 1.5 3.3 3.3v170.8c0 .9-.4 1.7-1.1 2.3-.6.6-1.4.9-2.2.9h-.2zm-53.3-14.6c16.4 3.7 33.3 6.3 50.3 7.8v-164H635.4l59 59c.6.6 1 1.4 1 2.3v94.9z" fill-rule="evenodd" fill="#000000"></path>
        <path d="M1226.3 463.9h-107.9v29.3h107.9v116.9h-109.4v103.4L992.7 837.8l-1.1-.6c-5.5-3.1-11.6-4.7-17.9-4.7H849.1v-95.9c36.4-22.3 61.4-60.3 61.4-60.3h93.6V384.9h74.3V234.8l-54.6-53.4h-19.7v-75.2h222.2v357.7zm-147.9-20.2 69-65.2V206.3c8.9-5.6 14.8-15.5 14.8-26.8 0-17.6-14.3-31.9-31.8-31.9-17.6 0-31.9 14.3-31.9 31.9 0 13.3 8.3 24.7 19.9 29.5v158.3l-70.8 67.5v250.9l-64.9 64.9c-5.3-10.2-15.9-17.1-28.2-17.1-17.6 0-31.8 14.2-31.8 31.8s14.8 31.8 31.8 31.8 30.8-13.3 31.8-30h20.4l71.7-71.8V443.7zm83.5 109.6c0-14.5-11.7-26.3-26.3-26.3-14.6 0-26.3 11.8-26.3 26.3 0 14.6 11.7 26.4 26.3 26.4 14.6 0 26.3-11.8 26.3-26.4z" fill-rule="evenodd" fill="#000000"></path>
        <path d="M992.7 841q-.8 0-1.6-.4l-1.1-.6c-5-2.8-10.6-4.3-16.3-4.3H849.1c-1.8 0-3.2-1.4-3.2-3.2v-95.9c0-1.2.6-2.2 1.5-2.8 35.4-21.6 60.2-58.9 60.5-59.3.6-.9 1.6-1.5 2.7-1.5h90.3V384.9c0-1.8 1.4-3.2 3.2-3.2h71.1V236.1l-52.7-51.4h-18.4c-1.8 0-3.2-1.5-3.2-3.3v-75.2c0-1.7 1.4-3.2 3.2-3.2h222.2c1.8 0 3.2 1.5 3.2 3.2v357.7c0 1.8-1.4 3.2-3.2 3.2h-104.6v22.8h104.6c1.8 0 3.2 1.5 3.2 3.3v116.9c0 1.8-1.4 3.2-3.2 3.2h-106.1v100.2c0 .9-.3 1.7-.9 2.3L995 840.1c-.6.6-1.4.9-2.3.9zm-140.3-11.8h121.3c6.4 0 12.8 1.6 18.5 4.5l121.6-121.5V610.1c0-1.8 1.4-3.2 3.2-3.2h106.1V496.4h-104.7c-1.8 0-3.2-1.4-3.2-3.2v-29.3c0-1.8 1.4-3.2 3.2-3.2h104.7V109.5h-215.7v68.7h16.4c.9 0 1.7.3 2.3.9l54.6 53.3c.6.7 1 1.5 1 2.4v150.1c0 1.8-1.5 3.3-3.2 3.3h-71.1v288.1c0 1.8-1.5 3.2-3.3 3.2h-91.8c-5 7.3-27.7 38.7-59.9 58.9v90.8zm102.1-28.8c-19.3 0-35.1-15.8-35.1-35.1s15.8-35.1 35.1-35.1c11.7 0 22.4 5.7 28.9 15.2l60.9-61V434.9c0-.9.4-1.8 1-2.4l69.9-66.6V211.1c-12.2-5.8-19.9-18-19.9-31.6 0-19.4 15.8-35.1 35.1-35.1s35.1 15.7 35.1 35.1c0 11.4-5.5 22-14.8 28.5v170.5c0 .9-.4 1.7-1 2.3l-68 64.3v250.3c0 .8-.4 1.6-1 2.3l-71.7 71.7c-.6.6-1.4.9-2.3.9h-17.5c-2.4 17.1-17.1 30.1-34.7 30.1zm0-63.7c-15.8 0-28.6 12.8-28.6 28.6s12.8 28.6 28.6 28.6 27.7-11.8 28.5-27c.1-1.7 1.5-3.1 3.3-3.1h19.1l69.8-69.8V443.7c0-.9.4-1.8 1-2.4l68-64.2V206.3c0-1.1.6-2.1 1.5-2.7 8.3-5.3 13.3-14.3 13.3-24.2 0-15.7-12.8-28.6-28.6-28.6s-28.6 12.9-28.6 28.6c0 11.7 7 22.1 17.8 26.6 1.3.5 2.1 1.6 2.1 3v158.2c0 .9-.4 1.8-1 2.4l-69.9 66.6v249.5c0 .9-.3 1.7-.9 2.3L985 752.8c-.7.8-1.7 1.1-2.8.9-1-.1-1.8-.7-2.3-1.7-5-9.4-14.7-15.3-25.4-15.3zm181.1-153.8c-16.4 0-29.6-13.2-29.6-29.6 0-16.3 13.2-29.5 29.6-29.5 16.3 0 29.6 13.2 29.6 29.5 0 16.4-13.3 29.6-29.6 29.6zm23.1-29.6c0-12.7-10.3-23-23.1-23s-23.1 10.3-23.1 23c0 12.8 10.3 23.1 23.1 23.1s23.1-10.3 23.1-23.1zm-80.2 142z" fill-rule="evenodd" fill="#000000"></path>
        <path d="M1147.3 727.1 934.4 940v74.6c162.9-49.6 283.1-197.4 291.4-374.4h-78.5z" fill="#000000"></path>
        <path d="M934.4 1017.8c-.7 0-1.3-.2-1.9-.6-.8-.6-1.3-1.6-1.3-2.6V940c0-.9.3-1.7.9-2.3l212-211.9v-85.6c0-1.7 1.4-3.2 3.2-3.2h78.5c.9 0 1.7.4 2.3 1 .6.6 1 1.5.9 2.4-8.2 174.8-126.2 326.4-293.6 377.3q-.5.1-1 .1zm3.3-76.5v68.9c161.5-51 275.3-197.6 284.7-366.7h-71.8v83.6c0 .9-.4 1.7-1 2.3L937.7 941.3zm209.6-214.2z" fill-rule="evenodd" fill="#000000"></path>
        <path d="M849.1 860.1v170.8c19.3-1.6 38.3-4.6 56.8-8.8v-97.5l64.5-64.5H849.1z" fill="#000000"></path>
        <path d="M849.1 1034.1zm-2.2-.9c-.7-.6-1-1.4-1-2.3V860.1c0-1.8 1.4-3.3 3.2-3.3h121.3c1.3 0 2.5.8 3 2s.2 2.6-.7 3.6l-63.6 63.5v96.2c0 1.5-1 2.8-2.5 3.2-18.7 4.2-37.9 7.2-57.2 8.8h-.3c-.8 0-1.6-.3-2.2-.9zm5.4-169.9v164c17-1.5 33.9-4.1 50.4-7.8v-94.9c0-.9.3-1.7.9-2.3l59-59H852.3z" fill-rule="evenodd" fill="#000000"></path>
        <path d="m178.3 1232-.1-128h44v120H316v-120h44.2v128q0 6.7-3.2 12-3 5.2-8 9-4.8 3.5-10.8 5.2-6 1.8-12 1.8h-114q-6.5 0-12.5-1.5-6-1.8-11-5-4.7-3.5-7.7-8.8-2.8-5.2-2.8-12.7zm204.5-8v36h44.3v-36zm111-58.8 90.7 94.8h47v-156h-44v95.5l-90-95.5h-48v156h44.3zm160.3 58.8-.1 36h44.3v-36zm187-120 82.7 155.9h-47l-12-21h-91.5l-11.7 21h-47.3l82.8-156zm-49.5 98.8h55.5l-28-51.3zm148.2 21.3v36h44.3v-36zm111 36h-44.3v-91h127.8q4 0 4-3v-23q0-1-1.3-2-1.2-1-2.7-1h-127.8v-36h154q3.5 0 7.3 2.2 4 2 7.2 5.3 3.3 3.3 5.3 7.3 2.2 3.7 2.2 7.2v49.5q0 8-3.7 13.8-3.5 5.7-9.5 9.5-5.8 3.5-13.3 5.2-7.2 1.5-14.7 1.5l59.7 54.5h-61.5l-61-54.5h-27.7zm154.3-36-.1 36h44.3v-36zm86.5 36v-68l-82.5-88h58l47 50 46.5-50h58l-82.8 88v68zm86-36v36h44.3v-36z" aria-label="U.N.A.R.Y." stroke="#000000" stroke-miterlimit="0" stroke-width="7" stroke-dasharray="NaN" fill="#000000"></path>
        <path d="M506.9 1336v156h162v-36h-118v-120zm304.7 0 82.8 156h-47l-12-21h-91.5l-11.8 21h-47.2l82.7-156zm-49.5 98.8h55.5l-28-51.3zm309 57.3H910.4v-95.5h128.2q4 0 4-3v-18.5q0-1-1.2-2-1.3-1-2.8-1H910.4v-36h154.5q3.5 0 7.2 2.2 4 2 7.3 5.3 3.2 3.2 5.2 7.2 2.3 3.8 2.3 7.3v39.5q0 8.5-.8 11.2-.5 2.8-1.5 4.3l-.2.2q.5.8 1.7 2.3 1.5 1.5 3 3.5 1.5 1.7 2.8 3.7 1.2 1.8 1.2 3.3v44q0 3.5-2.2 7.5-2 3.7-5.3 7-3 3.2-7 5.5-3.7 2-7.5 2zm-26.5-59.5h-90v23.5h90q4 0 4-3v-17.5q0-1-1.2-2-1.3-1-2.8-1z" aria-label="LAB" stroke="#000000" stroke-miterlimit="0" stroke-width="7" stroke-dasharray="NaN" fill="#000000"></path>
    </g>
</svg>
